<svg enable-background="new 0 0 83 97" viewBox="0 0 83 97" xmlns="http://www.w3.org/2000/svg"><path d="m70.19 2.73v4.97c-.33 0-.65 0-.97 0-17.96 0-35.92.02-53.88-.02-2.51-.01-4.65.67-6.29 2.58-.48.56-.9 1.3-1.02 2.01-.2 1.23-.29 2.52-.17 3.75.28 2.98 3.47 5.38 6.68 5.34 4.89-.06 9.78-.02 14.67-.02h39.61 1.37c.02.44.05.79.05 1.14v67.05c0 .7.02 1.4 0 2.1-.05 1.85-1.08 2.88-2.94 2.88-5.95.01-11.91.01-17.86.01-11.27 0-22.55.01-33.82-.01-4.28-.01-7.93-1.53-10.63-4.9-1.78-2.22-2.63-4.79-2.62-7.72.04-22.25.02-44.5.03-66.75 0-1.16-.01-2.36.27-3.47 1.14-4.57 4.98-8.21 9.74-8.67 3.86-.38 7.77-.25 11.65-.26 15-.02 30-.01 45 0 .36-.01.71-.01 1.13-.01zm-62.03 21.93v1.83 56.08c0 1.44.47 2.66 1.39 3.8 1.46 1.83 3.31 2.76 5.59 2.76 16.03.02 32.07.01 48.1.01h1.15c0-21.02 0-41.89 0-62.81-.29-.01-.52-.04-.75-.04-14.47 0-28.94.04-43.41-.02-4.01 0-8.14.67-12.07-1.61z"/><path d="m73 18.87c-4.21 0-8.24 0-12.26 0-14.84 0-29.67-.02-44.51.02-1.74.01-3.09-.65-4.26-1.78-1.32-1.27-1.04-4.04.3-5.31 1.27-1.2 2.68-1.54 4.36-1.54 20.99.02 41.98.01 62.96.01h1.14v77.18c-2.52 0-5.06 0-7.73 0 0-22.8 0-45.63 0-68.58z"/><path d="m43.41 75.93-15.41-22.11v19.58c0 2.83-2.29 5.24-5.18 5.24s-5.18-2.41-5.18-5.24v-29.21c0-3.67 3.01-6.81 6.81-6.81 2.29 0 4.28 1.14 5.54 2.95l14.58 20.72v-18.43c0-2.83 2.35-5.24 5.18-5.24 2.89 0 5.24 2.41 5.24 5.24v29.69c0 3.43-2.83 6.32-6.38 6.32-2.13.01-4.05-1.08-5.2-2.7z"/></svg>